<?xml version="1.0" encoding="UTF-8" standalone="no"?><!DOCTYPE svg PUBLIC "-//W3C//DTD SVG 1.1//EN" "http://www.w3.org/Graphics/SVG/1.1/DTD/svg11.dtd"><svg width="100%" height="100%" viewBox="0 0 2834 996" version="1.1" xmlns="http://www.w3.org/2000/svg" xmlns:xlink="http://www.w3.org/1999/xlink" xml:space="preserve" xmlns:serif="http://www.serif.com/" style="fill-rule:evenodd;clip-rule:evenodd;stroke-linejoin:round;stroke-miterlimit:2;"><g id="logo"><g><path d="M1154.19,60.373l0,252.522l68.12,-0l0,-252.522l92.852,-0l0,-57.273l-253.824,-0l0,57.273l92.852,-0Z" style="fill-rule:nonzero;"/><path d="M1350.74,3.1l-0,309.795l68.12,-0l0,-133.637l125.394,-0l-0,133.637l68.12,-0l-0,-309.795l-68.12,-0l-0,118.885l-125.394,-0l0,-118.885l-68.12,-0Z" style="fill-rule:nonzero;"/><path d="M1672.25,3.1l0,309.795l235.167,-0l0,-57.273l-167.046,-0l-0,-75.93l150.125,-0l-0,-52.935l-150.125,0l-0,-66.384l163.575,-0l0,-57.273l-231.696,-0Z" style="fill-rule:nonzero;"/><path d="M1132.06,548.062l-65.951,-0c-0.289,19.091 3.182,35.579 10.413,49.463c7.232,13.884 16.994,25.31 29.288,34.277c12.293,8.967 26.467,15.548 42.521,19.742c16.053,4.194 32.613,6.291 49.68,6.291c21.116,0 39.7,-2.458 55.754,-7.376c16.054,-4.917 29.505,-11.787 40.352,-20.609c10.847,-8.823 19.018,-19.308 24.514,-31.457c5.496,-12.149 8.244,-25.31 8.244,-39.484c0,-17.356 -3.688,-31.601 -11.064,-42.738c-7.376,-11.136 -16.126,-20.031 -26.25,-26.684c-10.124,-6.653 -20.32,-11.498 -30.589,-14.535c-10.269,-3.037 -18.296,-5.135 -24.081,-6.292c-19.38,-4.917 -35.072,-8.967 -47.077,-12.148c-12.004,-3.182 -21.405,-6.364 -28.202,-9.546c-6.798,-3.182 -11.354,-6.653 -13.668,-10.413c-2.314,-3.761 -3.471,-8.678 -3.471,-14.752c0,-6.653 1.446,-12.149 4.339,-16.488c2.893,-4.339 6.581,-7.955 11.064,-10.847c4.484,-2.893 9.473,-4.918 14.969,-6.075c5.496,-1.157 10.992,-1.735 16.488,-1.735c8.388,-0 16.126,0.723 23.213,2.169c7.087,1.447 13.378,3.905 18.874,7.376c5.496,3.471 9.907,8.244 13.234,14.319c3.326,6.074 5.279,13.739 5.857,22.996l65.951,-0c-0,-17.934 -3.399,-33.193 -10.196,-45.775c-6.798,-12.583 -15.982,-22.924 -27.552,-31.023c-11.571,-8.1 -24.804,-13.957 -39.701,-17.573c-14.897,-3.616 -30.444,-5.423 -46.643,-5.423c-13.884,-0 -27.769,1.88 -41.653,5.64c-13.884,3.76 -26.322,9.546 -37.314,17.356c-10.992,7.81 -19.887,17.572 -26.684,29.287c-6.798,11.715 -10.197,25.527 -10.197,41.436c0,14.174 2.676,26.25 8.027,36.23c5.351,9.979 12.366,18.295 21.044,24.948c8.677,6.653 18.512,12.077 29.504,16.271c10.992,4.194 22.273,7.738 33.843,10.63c11.281,3.182 22.418,6.075 33.41,8.678c10.991,2.603 20.826,5.641 29.504,9.112c8.678,3.471 15.692,7.81 21.043,13.016c5.352,5.207 8.027,12.004 8.027,20.393c0,7.81 -2.024,14.246 -6.074,19.308c-4.05,5.062 -9.112,9.039 -15.186,11.932c-6.075,2.892 -12.583,4.845 -19.525,5.857c-6.942,1.013 -13.451,1.519 -19.525,1.519c-8.967,-0 -17.645,-1.085 -26.033,-3.254c-8.389,-2.17 -15.692,-5.496 -21.911,-9.98c-6.22,-4.483 -11.209,-10.341 -14.97,-17.572c-3.76,-7.232 -5.64,-16.054 -5.64,-26.467Z" style="fill-rule:nonzero;"/><path d="M1421.9,497.297c0,-13.595 1.519,-26.756 4.556,-39.484c3.037,-12.727 7.883,-24.08 14.536,-34.06c6.652,-9.979 15.33,-17.934 26.033,-23.864c10.702,-5.929 23.719,-8.894 39.05,-8.894c15.33,-0 28.347,2.965 39.049,8.894c10.703,5.93 19.381,13.885 26.034,23.864c6.653,9.98 11.498,21.333 14.535,34.06c3.037,12.728 4.556,25.889 4.556,39.484c-0,13.017 -1.519,25.672 -4.556,37.965c-3.037,12.294 -7.882,23.358 -14.535,33.193c-6.653,9.834 -15.331,17.717 -26.034,23.646c-10.702,5.93 -23.719,8.895 -39.049,8.895c-15.331,0 -28.348,-2.965 -39.05,-8.895c-10.703,-5.929 -19.381,-13.812 -26.033,-23.646c-6.653,-9.835 -11.499,-20.899 -14.536,-33.193c-3.037,-12.293 -4.556,-24.948 -4.556,-37.965Zm-68.12,0c0,22.562 3.471,43.606 10.413,63.131c6.943,19.525 16.922,36.518 29.939,50.981c13.016,14.463 28.998,25.817 47.944,34.06c18.947,8.244 40.279,12.366 63.999,12.366c24.008,0 45.413,-4.122 64.215,-12.366c18.802,-8.243 34.711,-19.597 47.727,-34.06c13.017,-14.463 22.996,-31.456 29.939,-50.981c6.942,-19.525 10.413,-40.569 10.413,-63.131c-0,-23.141 -3.471,-44.618 -10.413,-64.432c-6.943,-19.814 -16.922,-37.098 -29.939,-51.85c-13.016,-14.752 -28.925,-26.322 -47.727,-34.711c-18.802,-8.388 -40.207,-12.582 -64.215,-12.582c-23.72,-0 -45.052,4.194 -63.999,12.582c-18.946,8.389 -34.928,19.959 -47.944,34.711c-13.017,14.752 -22.996,32.036 -29.939,51.85c-6.942,19.814 -10.413,41.291 -10.413,64.432Z" style="fill-rule:nonzero;"/><path d="M1967.73,533.744l0,-192.646l-68.12,-0l0,192.646c0,23.14 -4.628,40.134 -13.884,50.981c-9.256,10.847 -26.033,16.271 -50.331,16.271c-13.884,0 -24.949,-1.952 -33.192,-5.857c-8.244,-3.905 -14.68,-8.967 -19.308,-15.186c-4.629,-6.22 -7.666,-13.379 -9.112,-21.478c-1.446,-8.099 -2.169,-16.343 -2.169,-24.731l-0,-192.646l-68.121,-0l0,192.646c0,42.231 11.498,73.471 34.494,93.719c22.996,20.248 55.465,30.372 97.408,30.372c41.364,0 73.761,-10.196 97.191,-30.589c23.43,-20.392 35.144,-51.56 35.144,-93.502Z" style="fill-rule:nonzero;"/><path d="M2094.86,398.371l0,252.522l68.121,0l-0,-252.522l92.852,-0l-0,-57.273l-253.824,-0l-0,57.273l92.851,-0Z" style="fill-rule:nonzero;"/><path d="M2291.41,341.098l0,309.795l68.121,0l-0,-133.637l125.393,-0l-0,133.637l68.12,0l0,-309.795l-68.12,-0l-0,118.885l-125.393,-0l-0,-118.885l-68.121,-0Z" style="fill-rule:nonzero;"/><path d="M1132.06,886.06l-65.951,-0c-0.289,19.091 3.182,35.579 10.413,49.463c7.232,13.884 16.994,25.31 29.288,34.277c12.293,8.967 26.467,15.548 42.521,19.742c16.053,4.194 32.613,6.291 49.68,6.291c21.116,0 39.7,-2.458 55.754,-7.376c16.054,-4.917 29.505,-11.787 40.352,-20.609c10.847,-8.823 19.018,-19.308 24.514,-31.457c5.496,-12.149 8.244,-25.31 8.244,-39.484c0,-17.355 -3.688,-31.601 -11.064,-42.738c-7.376,-11.136 -16.126,-20.031 -26.25,-26.684c-10.124,-6.653 -20.32,-11.498 -30.589,-14.535c-10.269,-3.037 -18.296,-5.134 -24.081,-6.291c-19.38,-4.918 -35.072,-8.967 -47.077,-12.149c-12.004,-3.182 -21.405,-6.364 -28.202,-9.546c-6.798,-3.182 -11.354,-6.653 -13.668,-10.413c-2.314,-3.76 -3.471,-8.678 -3.471,-14.752c0,-6.653 1.446,-12.149 4.339,-16.488c2.893,-4.339 6.581,-7.955 11.064,-10.847c4.484,-2.893 9.473,-4.918 14.969,-6.075c5.496,-1.157 10.992,-1.735 16.488,-1.735c8.388,-0 16.126,0.723 23.213,2.169c7.087,1.447 13.378,3.905 18.874,7.376c5.496,3.471 9.907,8.244 13.234,14.319c3.326,6.074 5.279,13.739 5.857,22.996l65.951,-0c-0,-17.934 -3.399,-33.193 -10.196,-45.775c-6.798,-12.583 -15.982,-22.924 -27.552,-31.023c-11.571,-8.1 -24.804,-13.957 -39.701,-17.573c-14.897,-3.615 -30.444,-5.423 -46.643,-5.423c-13.884,-0 -27.769,1.88 -41.653,5.64c-13.884,3.761 -26.322,9.546 -37.314,17.356c-10.992,7.81 -19.887,17.572 -26.684,29.287c-6.798,11.715 -10.197,25.527 -10.197,41.436c0,14.174 2.676,26.25 8.027,36.23c5.351,9.979 12.366,18.295 21.044,24.948c8.677,6.653 18.512,12.077 29.504,16.271c10.992,4.194 22.273,7.738 33.843,10.63c11.281,3.182 22.418,6.075 33.41,8.678c10.991,2.603 20.826,5.641 29.504,9.112c8.678,3.471 15.692,7.81 21.043,13.016c5.352,5.207 8.027,12.005 8.027,20.393c0,7.81 -2.024,14.246 -6.074,19.308c-4.05,5.062 -9.112,9.039 -15.186,11.932c-6.075,2.892 -12.583,4.845 -19.525,5.857c-6.942,1.013 -13.451,1.519 -19.525,1.519c-8.967,-0 -17.645,-1.085 -26.033,-3.254c-8.389,-2.17 -15.692,-5.496 -21.911,-9.98c-6.22,-4.483 -11.209,-10.341 -14.97,-17.572c-3.76,-7.231 -5.64,-16.054 -5.64,-26.467Z" style="fill-rule:nonzero;"/><path d="M1630.16,871.742l0,-192.646l-68.12,-0l0,192.646c0,23.14 -4.628,40.134 -13.884,50.981c-9.257,10.848 -26.034,16.271 -50.331,16.271c-13.885,0 -24.949,-1.952 -33.193,-5.857c-8.243,-3.905 -14.679,-8.967 -19.308,-15.186c-4.628,-6.219 -7.665,-13.379 -9.111,-21.478c-1.447,-8.099 -2.17,-16.343 -2.17,-24.731l0,-192.646l-68.12,-0l0,192.646c0,42.231 11.498,73.471 34.494,93.719c22.996,20.248 55.465,30.372 97.408,30.372c41.364,0 73.761,-10.196 97.19,-30.589c23.43,-20.392 35.145,-51.56 35.145,-93.502Z" style="fill-rule:nonzero;"/><path d="M1688.74,679.096l0,309.795l63.781,0l0,-217.377l0.868,-0l75.93,217.377l52.501,0l75.93,-219.547l0.868,0l-0,219.547l63.781,0l0,-309.795l-95.889,-0l-68.554,213.038l-0.868,0l-72.459,-213.038l-95.889,-0Z" style="fill-rule:nonzero;"/><path d="M2082.28,679.096l-0,309.795l63.781,0l0,-217.377l0.868,-0l75.93,217.377l52.5,0l75.931,-219.547l0.867,0l0,219.547l63.782,0l-0,-309.795l-95.889,-0l-68.554,213.038l-0.868,0l-72.459,-213.038l-95.889,-0Z" style="fill-rule:nonzero;"/><rect x="2475.81" y="679.096" width="68.12" height="309.795" style="fill-rule:nonzero;"/><path d="M2672.36,736.369l0,252.522l68.12,0l0,-252.522l92.852,-0l0,-57.273l-253.824,-0l0,57.273l92.852,-0Z" style="fill-rule:nonzero;"/><path d="M0,639.054l0,-135.954l333.333,-0c324.048,-0 162.865,-500 666.667,-500l0,239.952c-219.304,15.221 -307.42,150.641 -388.901,260.756c-54.127,73.147 -104.53,135.246 -194.432,135.246l-416.667,0Zm1000,-373.007l0,223.177c-178.339,10.769 -246.98,91.319 -307.481,171.843c-61.342,81.643 -113.436,163.908 -275.852,163.908l-416.667,-0l0,-163.004l416.667,0c97.661,0 154.055,-65.071 212.854,-144.532c77.946,-105.337 161.461,-236.06 370.479,-251.392Zm0,246.165l0,157.554c-275.088,0 -118.909,326.067 -583.333,326.067l-416.667,0l0,-147.942l416.667,0c172.756,0 228.926,-86.218 294.173,-173.058c57.074,-75.962 121.816,-151.9 289.16,-162.621Z"/></g></g></svg>